<svg xmlns="http://www.w3.org/2000/svg" x="0px" y="0px"
     width="34" height="34"
     viewBox="0 0 172 172"
     style=" fill:#000000;"><g fill="none" fill-rule="nonzero" stroke="none" stroke-width="1" stroke-linecap="butt" stroke-linejoin="miter" stroke-miterlimit="10" stroke-dasharray="" stroke-dashoffset="0" font-family="none" font-weight="none" font-size="none" text-anchor="none" style="mix-blend-mode: normal"><path d="M0,172v-172h172v172z" fill="none"></path><g><path d="M166.625,77.9375h-1.47813c-1.20937,-13.30312 -12.49687,-23.65 -26.06875,-23.65h-24.05313h-58.05h-24.05312c-14.5125,0 -26.20312,11.69063 -26.20312,26.20312v7.39063c0,16.52812 13.4375,29.83125 29.83125,29.83125c10.61563,0 20.55938,-4.16562 28.08437,-11.69062l4.43438,-4.43438c6.71875,-6.71875 10.34687,-15.45312 10.34687,-24.99375c0,-5.50938 -2.01562,-10.48125 -5.24062,-14.5125h23.65c-1.34375,1.6125 -2.55313,3.49375 -3.35937,5.375c-2.01562,-1.34375 -4.43438,-2.01562 -7.12188,-2.01562c-2.28437,0 -4.03125,1.74688 -4.03125,4.03125c0,2.28438 1.74688,4.03125 4.03125,4.03125c2.82187,0 5.24063,2.28438 5.24063,5.24063c0,0.40312 0,0.67188 0.13437,1.075c0.67188,8.19688 4.3,15.85625 10.2125,21.76875l4.43438,4.43438c7.525,7.525 17.46875,11.69062 28.08437,11.69062c16.52812,0 29.83125,-13.4375 29.83125,-29.83125v-1.88125h1.34375c2.28438,0 4.03125,-1.74688 4.03125,-4.03125c0,-2.28437 -1.74687,-4.03125 -4.03125,-4.03125z" fill="#666666"></path><path d="M104.67813,80.75938c-2.28438,0 -4.03125,-1.74688 -4.03125,-4.03125c0,-7.92813 6.45,-14.5125 14.5125,-14.5125c2.28438,0 4.03125,1.74687 4.03125,4.03125c0,2.28437 -1.74687,4.03125 -4.03125,4.03125c-3.49375,0 -6.45,2.82187 -6.45,6.45c0,2.28438 -1.88125,4.03125 -4.03125,4.03125zM21.09688,100.64688c-1.075,0 -2.15,-0.40313 -2.82188,-1.20938c-0.80625,-0.80625 -1.20937,-1.74688 -1.20937,-2.82187c0,-1.075 0.40312,-2.15 1.20937,-2.82187c0.94063,-0.94063 2.28438,-1.34375 3.62813,-1.075c0.26875,0 0.5375,0.13437 0.80625,0.26875c0.26875,0.13438 0.5375,0.26875 0.67188,0.40312c0.26875,0.13437 0.40313,0.26875 0.67188,0.5375c0.13438,0.13437 0.40313,0.40313 0.5375,0.67188c0.13437,0.26875 0.26875,0.40313 0.40313,0.67188c0.13438,0.26875 0.13438,0.5375 0.26875,0.80625c0,0.26875 0.13438,0.5375 0.13438,0.80625c0,1.075 -0.40312,2.15 -1.20937,2.82187c-0.13438,0.13438 -0.40312,0.40313 -0.67187,0.5375c-0.26875,0.13438 -0.40312,0.26875 -0.67187,0.40313c-0.26875,0.13437 -0.5375,0.13437 -0.80625,0.26875c-0.40312,-0.26875 -0.67187,-0.26875 -0.94063,-0.26875zM18.8125,84.52188c-2.28438,0 -4.03125,-1.74687 -4.03125,-4.03125c0,-9.94375 8.19688,-18.14062 18.14063,-18.14062c2.28437,0 4.03125,1.74687 4.03125,4.03125c0,2.28438 -1.74688,4.03125 -4.03125,4.03125c-5.50938,0 -10.07812,4.56875 -10.07812,10.07813c0,2.15 -1.74687,4.03125 -4.03125,4.03125z" fill="#ffffff"></path><path d="M10.75,86h-5.375c-2.28438,0 -4.03125,-1.74688 -4.03125,-4.03125c0,-2.28437 1.74687,-4.03125 4.03125,-4.03125h5.375c2.28437,0 4.03125,1.74688 4.03125,4.03125c0,2.28437 -1.74688,4.03125 -4.03125,4.03125z" fill="#666666"></path></g></g></svg>
